<svg width="21" height="22" viewBox="0 0 21 22" fill="none" xmlns="http://www.w3.org/2000/svg">
<path d="M5 8C6.65685 8 8 6.65685 8 5C8 3.34315 6.65685 2 5 2C3.34315 2 2 3.34315 2 5C2 6.65685 3.34315 8 5 8Z" stroke="#0E00AD" stroke-width="3" stroke-linecap="round" stroke-linejoin="round"/>
<path d="M5 20C6.65685 20 8 18.6569 8 17C8 15.3431 6.65685 14 5 14C3.34315 14 2 15.3431 2 17C2 18.6569 3.34315 20 5 20Z" stroke="#0E00AD" stroke-width="3" stroke-linecap="round" stroke-linejoin="round"/>
<path d="M19.0001 3L7.12012 14.88" stroke="#0E00AD" stroke-width="3" stroke-linecap="round" stroke-linejoin="round"/>
<path d="M13.47 13.48L19 19" stroke="#0E00AD" stroke-width="3" stroke-linecap="round" stroke-linejoin="round"/>
<path d="M7.12012 7.12L11.0001 11" stroke="#0E00AD" stroke-width="3" stroke-linecap="round" stroke-linejoin="round"/>
</svg>
