<svg width="223" height="109" viewBox="0 0 223 109" fill="none" xmlns="http://www.w3.org/2000/svg">
<path d="M191.96 57.02C181.78 56.52 172.34 56.02 162.9 55.61C161.24 55.54 159.56 55.78 157.89 55.92C156.35 56.05 154.8 56.15 153.27 56.39C151.17 56.71 149.11 57.29 147 57.5C145.01 57.7 142.98 57.47 140.98 57.59C135.41 57.93 129.85 58.46 124.28 58.66C122.74 58.72 121.18 57.62 119.61 57.55C114.61 57.32 109.52 56.8 104.6 57.42C100.8 57.89 98.51 57.94 98.55 53.38C98.55 53.06 97.53 52.74 96.5 52.14C96.93 56.35 94.12 56.12 91.61 57.52C86.37 60.46 82.6 58.37 78.06 56.92C76.16 56.31 73.68 57.68 71.44 57.97C68.6 58.35 65.74 58.54 62.88 58.84C61.87 58.95 60.87 59.24 59.86 59.26C58.15 59.3 56.44 59.26 54.74 59.12C53.36 59.01 51.99 58.47 50.63 58.52C44.31 58.77 37.98 59 31.68 59.56C24.93 60.17 18.2 59.19 11.34 60.43C8.09001 61.02 3.99001 57.21 0.430014 55.12C0.150014 54.96 0.710013 52.01 1.55001 51.54C7.34001 48.29 13.09 44.44 20.33 47.43C20.93 47.68 22.14 46.8 22.91 46.24C28.79 41.91 35.3 41.98 42.09 43.12C43.61 43.38 45.97 43.33 46.75 42.41C49.57 39.11 52.39 40.71 55.67 41.16C59.64 41.71 63.87 41.33 67.87 40.63C80.45 38.44 93.01 38.53 105.64 39.86C108.08 40.12 111.1 38.54 113.02 39.5C117.31 41.65 121.34 39.39 125.48 39.84C129.13 40.24 132.91 39.44 136.64 39.17C137.29 39.12 138.01 38.92 138.57 39.13C144.95 41.57 151.27 39.06 157.61 39.13C163.69 39.19 169.73 39.4 175.87 41.26C183.15 43.47 191.06 43.61 198.69 44.65L199 43.13C194.18 41.42 189.35 39.75 184.57 37.95C183.78 37.65 183.27 36.66 182.52 36.17C180.34 34.74 178.13 33.37 175.89 32.04C174.78 31.38 173.61 30.82 172.44 30.28C170.42 29.35 168.44 28.32 166.34 27.61C158.62 24.98 151.83 20.56 145.34 15.87C143.47 14.51 140.81 13.37 139.82 11.82C138.15 9.21 137.57 5.53 137.73 2.36C137.77 1.5 142.27 -0.120002 144.4 0.289998C149.21 1.22 154 2.8 158.45 4.85C163.92 7.37 169.04 10.65 174.32 13.58C175.19 14.06 176.07 14.69 177.01 14.85C182.42 15.75 186.74 18.19 191.34 21.46C199.97 27.59 209.74 32.14 219.15 37.12C222.92 39.11 223.96 41.63 222.02 45.53C221.3 46.98 221.23 48.76 220.46 50.16C218.93 52.91 217.11 55.5 215.42 58.16C212.98 62.01 210.61 65.91 208.07 69.69C207.07 71.18 205.94 72.8 204.48 73.71C198.07 77.71 194.84 84.1 191 90.2C189.19 93.08 185.63 94.8 183.05 97.25C180.14 100.02 177.75 103.43 174.55 105.76C172.09 107.56 168.73 108.97 165.76 109C162.35 109.03 161.2 105.78 162.05 102.69C163.64 96.85 165.08 91.14 170.61 87.02C173.34 84.99 174.39 80.64 178.64 79.93C178.86 79.89 179.14 79.42 179.15 79.14C179.57 70.66 186.24 65.91 190.63 59.8C191.17 59.04 191.46 58.1 191.97 57.02H191.96Z" fill="white"/>
</svg>
